HIERARCHY
ROOT hip
{
	OFFSET 0.000000 0.000000 0.000000 
	CHANNELS 6 Xposition Yposition Zposition Xrotation Zrotation Yrotation
	JOINT abdomen
	{
		OFFSET 0.000000 3.402643 0.000000 
		CHANNELS 3 Xrotation Zrotation Yrotation
		JOINT chest
		{
			OFFSET 0.000000 8.438565 -0.680529 
			CHANNELS 3 Xrotation Zrotation Yrotation
			JOINT neck
			{
				OFFSET 0.000000 10.207942 -0.272212 
				CHANNELS 3 Xrotation Zrotation Yrotation
				JOINT head
				{
					OFFSET 0.000000 3.130431 0.000000 
					CHANNELS 3 Xrotation Zrotation Yrotation
					End Site
					{
						OFFSET 0.000000 3.130435 0.000000 
					}
				}
			}
			JOINT lCollar
			{
				OFFSET 3.470700 6.669187 -0.816635 
				CHANNELS 3 Yrotation Zrotation Xrotation
				JOINT lShldr
				{
					OFFSET 3.198488 0.000000 0.000000 
					CHANNELS 3 Zrotation Yrotation Xrotation
					JOINT lForeArm
					{
						OFFSET 10.139888 0.000000 0.000000 
						CHANNELS 3 Yrotation Zrotation Xrotation
						JOINT lHand
						{
							OFFSET 8.370511 0.000000 0.000000 
							CHANNELS 3 Zrotation Yrotation Xrotation
							End Site
							{
								OFFSET 4.083176 0.000000 0.000000 
							}
						}
					}
				}
			}
			JOINT rCollar
			{
				OFFSET -3.470700 6.669187 -0.816635 
				CHANNELS 3 Yrotation Zrotation Xrotation
				JOINT rShldr
				{
					OFFSET -3.198488 0.000000 0.000000 
					CHANNELS 3 Zrotation Yrotation Xrotation
					JOINT rForeArm
					{
						OFFSET -10.139888 0.000000 0.000000 
						CHANNELS 3 Yrotation Zrotation Xrotation
						JOINT rHand
						{
							OFFSET -8.370511 0.000000 0.000000 
							CHANNELS 3 Zrotation Yrotation Xrotation
							End Site
							{
								OFFSET -4.083176 0.000000 0.000000 
							}
						}
					}
				}
			}
		}
	}
	JOINT lThigh
	{
		OFFSET 5.308129 -1.633274 1.361059 
		CHANNELS 3 Xrotation Zrotation Yrotation
		JOINT lShin
		{
			OFFSET -2.041588 -20.007561 0.000000 
			CHANNELS 3 Xrotation Zrotation Yrotation
			JOINT lFoot
			{
				OFFSET 0.000000 -19.190928 -1.224953 
				CHANNELS 3 Xrotation Yrotation Zrotation
				End Site
				{
					OFFSET 0.000000 -2.449906 4.627600 
				}
			}
		}
	}
	JOINT rThigh
	{
		OFFSET -5.308129 -1.633274 1.361059 
		CHANNELS 3 Xrotation Zrotation Yrotation
		JOINT rShin
		{
			OFFSET 2.041588 -20.007561 0.000000 
			CHANNELS 3 Xrotation Zrotation Yrotation
			JOINT rFoot
			{
				OFFSET 0.000000 -19.190928 -1.224953 
				CHANNELS 3 Xrotation Yrotation Zrotation
				End Site
				{
					OFFSET 0.000000 -2.449906 4.627600 
				}
			}
		}
	}
}
MOTION
Frames: 8
Frame Time: 0.016667
0.425547 29.034769 -0.679697 -10.341015 -7.018236 1.750310 31.796852 20.268276 -3.845767 2.620292 -2.660422 5.853310 16.685265 -0.941473 -0.282368 28.582222 -12.630647 20.758659 -14.920296 -15.671937 -0.835944 -72.098480 11.270810 -35.318520 -55.771584 -4.869041 2.250084 0.480701 -29.645626 -45.000000 23.746157 14.168759 -0.755400 51.836395 17.413544 14.149521 65.009949 5.000000 17.811348 13.232229 -8.833462 -27.667175 -72.522453 24.647045 -8.514763 129.303726 0.247904 -0.557174 -38.479130 6.654947 -7.068212 11.939098 8.859427 -27.791340 109.166794 -1.054561 2.766232 -30.025242 -23.214024 -3.443645 
0.425305 29.036730 -0.673434 -10.330092 -6.949576 1.838746 31.822556 20.272100 -3.889374 2.623758 -2.670429 5.755748 16.253527 -0.754531 -0.221754 27.731682 -12.755039 21.472507 -14.949295 -15.652429 -0.834937 -72.113403 11.236928 -35.361618 -55.790222 -4.885943 2.260754 0.408043 -29.599913 -45.000000 23.619474 14.188283 -0.756418 51.860878 17.493151 14.201314 65.041428 5.000000 17.811531 13.312370 -8.879307 -27.691469 -72.490875 24.473045 -8.572091 129.283615 0.182026 -0.448975 -38.529499 6.566237 -7.189095 11.940687 8.813491 -27.888727 109.173744 -1.074012 2.816794 -30.006975 -23.212530 -3.414490 
0.420255 29.037882 -0.670333 -10.281503 -6.920257 1.848444 31.772827 20.283983 -3.932035 2.635958 -2.660798 5.706963 15.861629 -0.609128 -0.174603 26.937246 -12.880255 22.136684 -14.988061 -15.632920 -0.833931 -72.119377 11.228310 -35.354454 -55.782227 -4.851600 2.243483 0.376647 -29.603191 -45.000000 23.551512 14.217547 -0.757936 51.850533 17.533730 14.243885 65.059044 5.000000 17.802032 13.317538 -8.915895 -27.725027 -72.529564 24.414230 -8.626253 129.277176 0.162885 -0.403006 -38.489399 6.544964 -7.256742 11.913530 8.817182 -27.882357 109.163589 -1.064183 2.838784 -30.048428 -23.194710 -3.445677 
0.410131 29.038200 -0.671277 -10.196879 -6.940002 1.790277 31.692396 20.316195 -3.941046 2.645431 -2.650994 5.706942 15.499565 -0.505268 -0.140921 26.183636 -12.997773 22.751223 -15.036888 -15.632912 -0.833929 -72.100174 11.256251 -35.293243 -55.756027 -4.792300 2.211696 0.378829 -29.666906 -45.000000 23.542147 14.246804 -0.759449 51.810963 17.539618 14.297936 65.093353 5.000000 17.769007 13.255319 -8.947433 -27.792383 -72.610603 24.442060 -8.651378 129.265991 0.169660 -0.423285 -38.476273 6.605253 -7.267365 11.844697 8.845689 -27.836792 109.172356 -1.083813 2.841156 -30.111641 -23.097647 -3.520396 
0.395771 29.037704 -0.669550 -10.120496 -6.950016 1.721238 31.633509 20.349035 -3.948562 2.656147 -2.621699 5.726453 15.137714 -0.402869 -0.116893 25.449146 -13.096373 23.346771 -15.073165 -15.625693 -0.824343 -72.089180 11.269247 -35.235046 -55.720081 -4.734341 2.175486 0.378701 -29.694004 -45.000000 23.530504 14.279960 -0.752286 51.781376 17.543194 14.354918 65.114395 5.000000 17.740337 13.206100 -8.961462 -27.859907 -72.701584 24.481638 -8.695954 129.271729 0.209034 -0.450404 -38.443958 6.640733 -7.299351 11.775351 8.873234 -27.781500 109.163948 -1.064186 2.829272 -30.107983 -23.037066 -3.568531 
0.375256 29.036337 -0.661694 -10.131350 -6.979579 1.642504 31.661621 20.369253 -3.915343 2.667946 -2.582687 5.745534 14.766237 -0.319780 -0.089945 24.755484 -13.196168 23.810373 -15.062963 -15.596438 -0.822833 -72.075752 11.252445 -35.136463 -55.681835 -4.716759 2.166636 0.365824 -29.563337 -45.000000 23.540401 14.289712 -0.752791 51.751320 17.555473 14.379976 65.095543 5.000000 17.729212 13.173630 -8.938358 -27.896843 -72.730682 24.569744 -8.752823 129.309189 0.220992 -0.471675 -38.431419 6.675636 -7.330481 11.784387 8.940106 -27.698996 109.136414 -1.044766 2.805578 -29.932604 -23.109806 -3.531135 
0.352091 29.034039 -0.650738 -10.160452 -7.009163 1.554077 31.703207 20.372499 -3.888793 2.670614 -2.533930 5.765061 14.404630 -0.246346 -0.061537 24.073139 -13.289297 24.231649 -15.052613 -15.557431 -0.820821 -72.060280 11.232655 -35.026913 -55.653831 -4.691487 2.151744 0.348766 -29.394466 -45.000000 23.550301 14.299463 -0.753295 51.725307 17.566107 14.418184 65.059265 5.000000 17.722885 13.145278 -8.902181 -27.935532 -72.728508 24.656916 -8.812956 129.365433 0.247831 -0.482935 -38.445808 6.752089 -7.374435 11.834086 9.000354 -27.632387 109.097794 -1.044633 2.793010 -29.809422 -23.177416 -3.502155 
0.334680 29.030560 -0.641326 -10.169430 -7.019209 1.465651 31.724897 20.371742 -3.854725 2.672479 -2.504692 5.774828 14.052892 -0.164718 -0.044244 23.420712 -13.381927 24.645699 -15.054648 -15.515888 -0.827894 -72.071815 11.216554 -34.970272 -55.596611 -4.668530 2.127750 0.242351 -29.231604 -45.000000 23.591511 14.285804 -0.761463 51.720211 17.553211 14.429378 65.010475 5.000000 17.746326 13.112139 -8.842311 -27.996815 -72.729469 24.735378 -8.885582 129.396027 0.228672 -0.491944 -38.424789 6.777369 -7.377776 11.862386 9.037515 -27.552540 109.081421 -1.015363 2.745324 -29.659393 -23.204809 -3.462276 
